<svg width="44" height="44" viewBox="0 0 44 44" fill="none" xmlns="http://www.w3.org/2000/svg">
<path d="M22 38.5C25.2634 38.5 28.4535 37.5323 31.1669 35.7193C33.8803 33.9062 35.9952 31.3293 37.244 28.3143C38.4929 25.2993 38.8196 21.9817 38.183 18.781C37.5463 15.5803 35.9748 12.6403 33.6673 10.3327C31.3597 8.02518 28.4197 6.45371 25.219 5.81705C22.0183 5.18039 18.7007 5.50715 15.6857 6.75599C12.6707 8.00484 10.0938 10.1197 8.28075 12.8331C6.46771 15.5465 5.5 18.7366 5.5 22C5.5 24.64 6.11967 27.1333 7.22333 29.3462C8.05383 31.0163 6.89883 33.2695 6.45883 34.914C6.36135 35.2777 6.36134 35.6607 6.45878 36.0244C6.55623 36.3881 6.74771 36.7198 7.01397 36.986C7.28023 37.2523 7.61189 37.4438 7.97561 37.5412C8.33933 37.6387 8.72229 37.6386 9.086 37.5412C10.7305 37.1012 12.9837 35.9462 14.6538 36.7785C16.9367 37.912 19.4512 38.5013 22 38.5Z" stroke="white" stroke-width="3" stroke-linecap="round" stroke-linejoin="round"/>
</svg>
