<svg width="36" height="36" viewBox="0 0 36 36" fill="none" xmlns="http://www.w3.org/2000/svg">
<path fill-rule="evenodd" clip-rule="evenodd" d="M10.8945 4.89C10.9833 4.06202 11.3751 3.29611 11.9945 2.73954C12.614 2.18298 13.4173 1.87506 14.25 1.875H21.75C22.5827 1.87506 23.386 2.18298 24.0055 2.73954C24.6249 3.29611 25.0167 4.06202 25.1055 4.89C26.2515 4.914 27.24 4.9725 28.086 5.1285C29.223 5.3385 30.1905 5.7345 30.978 6.5235C31.881 7.425 32.268 8.5635 32.451 9.9135C32.625 11.2125 32.625 12.867 32.625 14.9175V24.0825C32.625 26.133 32.625 27.7875 32.451 29.088C32.268 30.438 31.881 31.575 30.978 32.478C30.075 33.381 28.938 33.768 27.588 33.951C26.2875 34.125 24.633 34.125 22.5825 34.125H13.4175C11.367 34.125 9.7125 34.125 8.412 33.951C7.062 33.768 5.925 33.381 5.022 32.478C4.119 31.575 3.732 30.438 3.5505 29.088C3.375 27.7875 3.375 26.133 3.375 24.0825V14.9175C3.375 12.867 3.375 11.2125 3.5505 9.912C3.7305 8.562 4.1205 7.425 5.022 6.522C5.8095 5.7345 6.777 5.337 7.914 5.1285C8.76 4.9725 9.75 4.914 10.8945 4.89ZM10.8975 7.14C9.8205 7.164 8.9895 7.218 8.3205 7.341C7.4715 7.497 6.978 7.749 6.6135 8.1135C6.198 8.529 5.928 9.111 5.7795 10.2135C5.628 11.3445 5.625 12.8475 5.625 15V24C5.625 26.1525 5.628 27.654 5.7795 28.788C5.928 29.889 6.1995 30.471 6.6135 30.8865C7.029 31.302 7.611 31.572 8.7135 31.7205C9.8445 31.872 11.3475 31.875 13.5 31.875H22.5C24.6525 31.875 26.154 31.872 27.288 31.7205C28.389 31.572 28.971 31.3005 29.3865 30.8865C29.802 30.471 30.072 29.889 30.2205 28.7865C30.372 27.654 30.375 26.1525 30.375 24V15C30.375 12.8475 30.372 11.3445 30.2205 10.212C30.072 9.111 29.8005 8.529 29.3865 8.1135C29.0205 7.749 28.5285 7.4985 27.6795 7.341C27.0105 7.218 26.1795 7.164 25.1025 7.1415C25.0065 7.96328 24.612 8.72117 23.994 9.2712C23.3759 9.82123 22.5774 10.1251 21.75 10.125H14.25C13.4224 10.125 12.6237 9.82098 12.0056 9.27064C11.3875 8.7203 10.9931 7.96205 10.8975 7.14ZM14.25 4.125C13.9516 4.125 13.6655 4.24353 13.4545 4.4545C13.2435 4.66548 13.125 4.95163 13.125 5.25V6.75C13.125 7.371 13.629 7.875 14.25 7.875H21.75C22.0484 7.875 22.3345 7.75647 22.5455 7.5455C22.7565 7.33452 22.875 7.04837 22.875 6.75V5.25C22.875 4.95163 22.7565 4.66548 22.5455 4.4545C22.3345 4.24353 22.0484 4.125 21.75 4.125H14.25ZM9.375 15.75C9.375 15.4516 9.49353 15.1655 9.7045 14.9545C9.91548 14.7435 10.2016 14.625 10.5 14.625H11.25C11.5484 14.625 11.8345 14.7435 12.0455 14.9545C12.2565 15.1655 12.375 15.4516 12.375 15.75C12.375 16.0484 12.2565 16.3345 12.0455 16.5455C11.8345 16.7565 11.5484 16.875 11.25 16.875H10.5C10.2016 16.875 9.91548 16.7565 9.7045 16.5455C9.49353 16.3345 9.375 16.0484 9.375 15.75ZM14.625 15.75C14.625 15.4516 14.7435 15.1655 14.9545 14.9545C15.1655 14.7435 15.4516 14.625 15.75 14.625H25.5C25.7984 14.625 26.0845 14.7435 26.2955 14.9545C26.5065 15.1655 26.625 15.4516 26.625 15.75C26.625 16.0484 26.5065 16.3345 26.2955 16.5455C26.0845 16.7565 25.7984 16.875 25.5 16.875H15.75C15.4516 16.875 15.1655 16.7565 14.9545 16.5455C14.7435 16.3345 14.625 16.0484 14.625 15.75ZM9.375 21C9.375 20.7016 9.49353 20.4155 9.7045 20.2045C9.91548 19.9935 10.2016 19.875 10.5 19.875H11.25C11.5484 19.875 11.8345 19.9935 12.0455 20.2045C12.2565 20.4155 12.375 20.7016 12.375 21C12.375 21.2984 12.2565 21.5845 12.0455 21.7955C11.8345 22.0065 11.5484 22.125 11.25 22.125H10.5C10.2016 22.125 9.91548 22.0065 9.7045 21.7955C9.49353 21.5845 9.375 21.2984 9.375 21ZM14.625 21C14.625 20.7016 14.7435 20.4155 14.9545 20.2045C15.1655 19.9935 15.4516 19.875 15.75 19.875H25.5C25.7984 19.875 26.0845 19.9935 26.2955 20.2045C26.5065 20.4155 26.625 20.7016 26.625 21C26.625 21.2984 26.5065 21.5845 26.2955 21.7955C26.0845 22.0065 25.7984 22.125 25.5 22.125H15.75C15.4516 22.125 15.1655 22.0065 14.9545 21.7955C14.7435 21.5845 14.625 21.2984 14.625 21ZM9.375 26.25C9.375 25.9516 9.49353 25.6655 9.7045 25.4545C9.91548 25.2435 10.2016 25.125 10.5 25.125H11.25C11.5484 25.125 11.8345 25.2435 12.0455 25.4545C12.2565 25.6655 12.375 25.9516 12.375 26.25C12.375 26.5484 12.2565 26.8345 12.0455 27.0455C11.8345 27.2565 11.5484 27.375 11.25 27.375H10.5C10.2016 27.375 9.91548 27.2565 9.7045 27.0455C9.49353 26.8345 9.375 26.5484 9.375 26.25ZM14.625 26.25C14.625 25.9516 14.7435 25.6655 14.9545 25.4545C15.1655 25.2435 15.4516 25.125 15.75 25.125H25.5C25.7984 25.125 26.0845 25.2435 26.2955 25.4545C26.5065 25.6655 26.625 25.9516 26.625 26.25C26.625 26.5484 26.5065 26.8345 26.2955 27.0455C26.0845 27.2565 25.7984 27.375 25.5 27.375H15.75C15.4516 27.375 15.1655 27.2565 14.9545 27.0455C14.7435 26.8345 14.625 26.5484 14.625 26.25Z" fill="#184373"/>
</svg>
