<svg width="38" height="38" viewBox="0 0 38 38" fill="none" xmlns="http://www.w3.org/2000/svg">
<path d="M22.2491 5.81155C21.2831 5.18006 20.1541 4.84375 19.0001 4.84375C17.846 4.84375 16.717 5.18006 15.7511 5.81155L2.91181 14.2024C2.72917 14.3217 2.5829 14.4889 2.48906 14.6858C2.39521 14.8827 2.35741 15.1017 2.37981 15.3187L2.37506 15.4374V24.9374C2.37506 25.2524 2.50017 25.5544 2.72287 25.7771C2.94557 25.9998 3.24762 26.1249 3.56256 26.1249C3.87751 26.1249 4.17955 25.9998 4.40225 25.7771C4.62495 25.5544 4.75006 25.2524 4.75006 24.9374V17.4372L7.12506 19.045V27.785C7.12504 28.0681 7.22611 28.3418 7.41006 28.5569L7.41481 28.5641L7.42906 28.5807L7.47656 28.6329L7.63806 28.8087C7.77819 28.9559 7.98006 29.1602 8.24131 29.4024C8.76381 29.8846 9.53094 30.521 10.5189 31.1599C12.4902 32.4329 15.3853 33.7249 19.0001 33.7249C22.6148 33.7249 25.5076 32.4329 27.4812 31.1599C28.4692 30.521 29.2363 29.8846 29.7588 29.4024C30.0234 29.1557 30.2785 28.899 30.5236 28.6329L30.5711 28.5807L30.5853 28.5641L30.5901 28.5593L30.5924 28.5545C30.7745 28.3404 30.8746 28.0685 30.8751 27.7874V19.0427L35.1026 16.1808C35.2731 16.08 35.4123 15.9338 35.5045 15.7585C35.5968 15.5832 35.6385 15.3857 35.6251 15.1881C35.6235 14.992 35.5735 14.7994 35.4794 14.6275C35.3854 14.4555 35.2502 14.3095 35.0859 14.2024L22.2491 5.81155ZM28.5001 20.6529V27.3172C28.4051 27.4122 28.2871 27.5254 28.1462 27.6568C27.5402 28.2142 26.887 28.718 26.1939 29.1625C24.4839 30.2646 22.0353 31.3475 19.0001 31.3475C15.9648 31.3475 13.5138 30.2646 11.8062 29.1625C10.9756 28.629 10.2028 28.0105 9.50006 27.3172V20.6529L15.6727 24.8305C16.655 25.4952 17.814 25.8505 19.0001 25.8505C20.1862 25.8505 21.3451 25.4952 22.3274 24.8305L28.5001 20.6529ZM17.0502 7.79943C17.6298 7.42033 18.3074 7.21843 19.0001 7.21843C19.6927 7.21843 20.3703 7.42033 20.9499 7.79943L32.2929 15.1999L20.9974 22.864C20.4078 23.2633 19.7121 23.4767 19.0001 23.4767C18.288 23.4767 17.5923 23.2633 17.0027 22.864L5.70481 15.2166L17.0502 7.79943Z" fill="#1D5184"/>
</svg>
