<svg width="36" height="36" viewBox="0 0 36 36" fill="none" xmlns="http://www.w3.org/2000/svg">
<path d="M13.7296 8.112C15.6301 4.704 16.5796 3 18.0001 3C19.4206 3 20.3701 4.704 22.2706 8.112L22.7626 8.994C23.3026 9.963 23.5726 10.4475 23.9926 10.767C24.4126 11.0865 24.9376 11.205 25.9876 11.442L26.9416 11.658C30.6316 12.4935 32.4751 12.9105 32.9146 14.322C33.3526 15.732 32.0956 17.2035 29.5801 20.145L28.9291 20.9055C28.2151 21.741 27.8566 22.1595 27.6961 22.6755C27.5356 23.193 27.5896 23.751 27.6976 24.8655L27.7966 25.881C28.1761 29.8065 28.3666 31.7685 27.2176 32.64C26.0686 33.5115 24.3406 32.7165 20.8876 31.1265L19.9921 30.7155C19.0111 30.2625 18.5206 30.0375 18.0001 30.0375C17.4796 30.0375 16.9891 30.2625 16.0081 30.7155L15.1141 31.1265C11.6596 32.7165 9.93161 33.5115 8.78411 32.6415C7.63361 31.7685 7.82411 29.8065 8.20361 25.881L8.30261 24.867C8.41061 23.751 8.46461 23.193 8.30261 22.677C8.14361 22.1595 7.78511 21.741 7.07111 20.907L6.42011 20.145C3.90461 17.205 2.64761 15.7335 3.08561 14.322C3.52361 12.9105 5.37011 12.492 9.06011 11.658L10.0141 11.442C11.0626 11.205 11.5861 11.0865 12.0076 10.767C12.4291 10.4475 12.6976 9.963 13.2376 8.994L13.7296 8.112Z" stroke="#644B0E" stroke-width="2"/>
</svg>
