<svg width="16" height="26" viewBox="0 0 16 26" fill="none" xmlns="http://www.w3.org/2000/svg">
<path d="M2.33333 3.66667C3.06971 3.66667 3.66667 3.06971 3.66667 2.33333C3.66667 1.59695 3.06971 1 2.33333 1C1.59695 1 1 1.59695 1 2.33333C1 3.06971 1.59695 3.66667 2.33333 3.66667Z" stroke="black" stroke-width="2" stroke-linecap="round" stroke-linejoin="round"/>
<path d="M13.0001 3.66667C13.7365 3.66667 14.3334 3.06971 14.3334 2.33333C14.3334 1.59695 13.7365 1 13.0001 1C12.2637 1 11.6667 1.59695 11.6667 2.33333C11.6667 3.06971 12.2637 3.66667 13.0001 3.66667Z" stroke="black" stroke-width="2" stroke-linecap="round" stroke-linejoin="round"/>
<path d="M2.33333 14.3332C3.06971 14.3332 3.66667 13.7362 3.66667 12.9998C3.66667 12.2635 3.06971 11.6665 2.33333 11.6665C1.59695 11.6665 1 12.2635 1 12.9998C1 13.7362 1.59695 14.3332 2.33333 14.3332Z" stroke="black" stroke-width="2" stroke-linecap="round" stroke-linejoin="round"/>
<path d="M13.0001 14.3332C13.7365 14.3332 14.3334 13.7362 14.3334 12.9998C14.3334 12.2635 13.7365 11.6665 13.0001 11.6665C12.2637 11.6665 11.6667 12.2635 11.6667 12.9998C11.6667 13.7362 12.2637 14.3332 13.0001 14.3332Z" stroke="black" stroke-width="2" stroke-linecap="round" stroke-linejoin="round"/>
<path d="M2.33333 25.0002C3.06971 25.0002 3.66667 24.4032 3.66667 23.6668C3.66667 22.9304 3.06971 22.3335 2.33333 22.3335C1.59695 22.3335 1 22.9304 1 23.6668C1 24.4032 1.59695 25.0002 2.33333 25.0002Z" stroke="black" stroke-width="2" stroke-linecap="round" stroke-linejoin="round"/>
<path d="M13.0001 25.0002C13.7365 25.0002 14.3334 24.4032 14.3334 23.6668C14.3334 22.9304 13.7365 22.3335 13.0001 22.3335C12.2637 22.3335 11.6667 22.9304 11.6667 23.6668C11.6667 24.4032 12.2637 25.0002 13.0001 25.0002Z" stroke="black" stroke-width="2" stroke-linecap="round" stroke-linejoin="round"/>
</svg>
