<svg width="36" height="36" viewBox="0 0 36 36" fill="none" xmlns="http://www.w3.org/2000/svg">
<path d="M21 31.5V27C21 26.2044 20.6839 25.4413 20.1213 24.8787C19.5587 24.3161 18.7956 24 18 24C17.2044 24 16.4413 24.3161 15.8787 24.8787C15.3161 25.4413 15 26.2044 15 27V31.5M27 18H27.015M27 24H27.015" stroke="white" stroke-width="2" stroke-linecap="round" stroke-linejoin="round"/>
<path d="M9 17.9999H9.015M9 23.9999H9.015M33 10.4999C33 10.1021 32.842 9.72057 32.5607 9.43926C32.2794 9.15796 31.8978 8.99992 31.5 8.99992H28.5C27.8869 8.99983 27.2885 8.8119 26.7855 8.46142L19.7145 3.53992C19.2116 3.18933 18.6133 3.00125 18.0002 3.00098C17.3872 3.00071 16.7887 3.18827 16.2855 3.53842L9.2145 8.45992C8.71163 8.81093 8.11326 8.99939 7.5 8.99992H4.5C4.10218 8.99992 3.72064 9.15796 3.43934 9.43926C3.15804 9.72057 3 10.1021 3 10.4999V28.4999C3 29.2956 3.31607 30.0586 3.87868 30.6212C4.44129 31.1838 5.20435 31.4999 6 31.4999H30C30.7956 31.4999 31.5587 31.1838 32.1213 30.6212C32.6839 30.0586 33 29.2956 33 28.4999V10.4999Z" stroke="white" stroke-width="2" stroke-linecap="round" stroke-linejoin="round"/>
<path d="M18 18C19.6569 18 21 16.6569 21 15C21 13.3431 19.6569 12 18 12C16.3431 12 15 13.3431 15 15C15 16.6569 16.3431 18 18 18Z" stroke="white" stroke-width="2" stroke-linecap="round" stroke-linejoin="round"/>
</svg>
